<svg version="1.1" xmlns="http://www.w3.org/2000/svg" xmlns:xlink="http://www.w3.org/1999/xlink" width="24px" height="24px" viewBox="0,0,256,256"><g transform="translate(25.6,25.6) scale(0.8,0.8)"><g fill="#000000" fill-rule="nonzero" stroke="none" stroke-width="1" stroke-linecap="butt" stroke-linejoin="miter" stroke-miterlimit="10" stroke-dasharray="" stroke-dashoffset="0" font-family="none" font-weight="none" font-size="none" text-anchor="none" style="mix-blend-mode: normal"><g transform="translate(0,256) scale(0.26667,0.26667)"><path d="M720,-440v-80h160v80zM768,-160l-128,-96l48,-64l128,96zM688,-640l-48,-64l128,-96l48,64zM200,-200v-160h-40c-22,0 -40.83333,-7.83333 -56.5,-23.5c-15.66667,-15.66667 -23.5,-34.5 -23.5,-56.5v-80c0,-22 7.83333,-40.83333 23.5,-56.5c15.66667,-15.66667 34.5,-23.5 56.5,-23.5h160l200,-120v480l-200,-120h-40v160zM440,-382v-196l-98,58h-182v80h182zM560,-346v-268c18,16 32.5,35.5 43.5,58.5c11,23 16.5,48.16667 16.5,75.5c0,27.33333 -5.5,52.5 -16.5,75.5c-11,23 -25.5,42.5 -43.5,58.5zM300,-480z"></path></g></g></g></svg>
