<svg version="1.1" xmlns="http://www.w3.org/2000/svg" xmlns:xlink="http://www.w3.org/1999/xlink" width="24px" height="24px" viewBox="0,0,256,256"><g transform="translate(25.6,25.6) scale(0.8,0.8)"><g fill="#000000" fill-rule="nonzero" stroke="none" stroke-width="1" stroke-linecap="butt" stroke-linejoin="miter" stroke-miterlimit="10" stroke-dasharray="" stroke-dashoffset="0" font-family="none" font-weight="none" font-size="none" text-anchor="none" style="mix-blend-mode: normal"><g transform="translate(0,256) scale(0.26667,0.26667)"><path d="M40,-160v-112c0,-22.66667 5.83333,-43.5 17.5,-62.5c11.66667,-19 27.16667,-33.5 46.5,-43.5c41.33333,-20.66667 83.33333,-36.16667 126,-46.5c42.66667,-10.33333 86,-15.5 130,-15.5c44,0 87.33333,5.16667 130,15.5c42.66667,10.33333 84.66667,25.83333 126,46.5c19.33333,10 34.83333,24.5 46.5,43.5c11.66667,19 17.5,39.83333 17.5,62.5v112zM760,-160v-120c0,-29.33333 -8.16667,-57.5 -24.5,-84.5c-16.33333,-27 -39.5,-50.16667 -69.5,-69.5c34,4 66,10.83333 96,20.5c30,9.66667 58,21.5 84,35.5c24,13.33333 42.33333,28.16667 55,44.5c12.66667,16.33333 19,34.16667 19,53.5v120zM360,-480c-44,0 -81.66667,-15.66667 -113,-47c-31.33333,-31.33333 -47,-69 -47,-113c0,-44 15.66667,-81.66667 47,-113c31.33333,-31.33333 69,-47 113,-47c44,0 81.66667,15.66667 113,47c31.33333,31.33333 47,69 47,113c0,44 -15.66667,81.66667 -47,113c-31.33333,31.33333 -69,47 -113,47zM760,-640c0,44 -15.66667,81.66667 -47,113c-31.33333,31.33333 -69,47 -113,47c-7.33333,0 -16.66667,-0.83333 -28,-2.5c-11.33333,-1.66667 -20.66667,-3.5 -28,-5.5c18,-21.33333 31.83333,-45 41.5,-71c9.66667,-26 14.5,-53 14.5,-81c0,-28 -4.83333,-55 -14.5,-81c-9.66667,-26 -23.5,-49.66667 -41.5,-71c9.33333,-3.33333 18.66667,-5.5 28,-6.5c9.33333,-1 18.66667,-1.5 28,-1.5c44,0 81.66667,15.66667 113,47c31.33333,31.33333 47,69 47,113zM120,-240h480v-32c0,-7.33333 -1.83333,-14 -5.5,-20c-3.66667,-6 -8.5,-10.66667 -14.5,-14c-36,-18 -72.33333,-31.5 -109,-40.5c-36.66667,-9 -73.66667,-13.5 -111,-13.5c-37.33333,0 -74.33333,4.5 -111,13.5c-36.66667,9 -73,22.5 -109,40.5c-6,3.33333 -10.83333,8 -14.5,14c-3.66667,6 -5.5,12.66667 -5.5,20zM360,-560c22,0 40.83333,-7.83333 56.5,-23.5c15.66667,-15.66667 23.5,-34.5 23.5,-56.5c0,-22 -7.83333,-40.83333 -23.5,-56.5c-15.66667,-15.66667 -34.5,-23.5 -56.5,-23.5c-22,0 -40.83333,7.83333 -56.5,23.5c-15.66667,15.66667 -23.5,34.5 -23.5,56.5c0,22 7.83333,40.83333 23.5,56.5c15.66667,15.66667 34.5,23.5 56.5,23.5zM360,-240zM360,-640z"></path></g></g></g></svg>
